<svg width="24" height="24" viewBox="0 0 24 24" fill="none" xmlns="http://www.w3.org/2000/svg">
<path d="M18.3 17.4H19.05H18.3ZM5.7 14.3256H6.45C6.45 14.0275 6.27345 13.7576 6.00028 13.6383L5.7 14.3256ZM18.3 14.3256L17.9997 13.6383C17.7265 13.7576 17.55 14.0275 17.55 14.3256L18.3 14.3256ZM15.3 7.5C15.3 7.91421 15.6358 8.25 16.05 8.25C16.4642 8.25 16.8 7.91421 16.8 7.5H15.3ZM7.2 7.5C7.2 7.91421 7.53579 8.25 7.95 8.25C8.36421 8.25 8.7 7.91421 8.7 7.5H7.2ZM7.5 4.95C4.60051 4.95 2.25 7.30051 2.25 10.2H3.75C3.75 8.12893 5.42893 6.45 7.5 6.45V4.95ZM16.5 6.45C18.5711 6.45 20.25 8.12893 20.25 10.2H21.75C21.75 7.30051 19.3995 4.95 16.5 4.95V6.45ZM14.7 20.25H9.3V21.75H14.7V20.25ZM9.3 20.25C8.43027 20.25 7.85342 20.2484 7.42485 20.1908C7.01785 20.1361 6.85856 20.0435 6.75754 19.9425L5.69688 21.0031C6.12306 21.4293 6.65164 21.6003 7.22497 21.6774C7.77673 21.7516 8.47267 21.75 9.3 21.75V20.25ZM4.95 17.4C4.95 18.2273 4.94841 18.9233 5.02259 19.475C5.09967 20.0484 5.2707 20.5769 5.69688 21.0031L6.75754 19.9425C6.65651 19.8414 6.56393 19.6822 6.50921 19.2752C6.45159 18.8466 6.45 18.2697 6.45 17.4H4.95ZM17.55 17.4C17.55 18.2697 17.5484 18.8466 17.4908 19.2752C17.4361 19.6822 17.3435 19.8414 17.2425 19.9425L18.3031 21.0031C18.7293 20.5769 18.9003 20.0484 18.9774 19.475C19.0516 18.9233 19.05 18.2273 19.05 17.4H17.55ZM14.7 21.75C15.5273 21.75 16.2233 21.7516 16.775 21.6774C17.3484 21.6003 17.8769 21.4293 18.3031 21.0031L17.2425 19.9425C17.1414 20.0435 16.9822 20.1361 16.5752 20.1908C16.1466 20.2484 15.5697 20.25 14.7 20.25V21.75ZM7.5 6.45C7.68864 6.45 7.87358 6.46387 8.05396 6.49053L8.27329 5.00665C8.02053 4.96929 7.76229 4.95 7.5 4.95V6.45ZM12 2.25C9.88743 2.25 8.09546 3.61429 7.45336 5.50773L8.8739 5.98946C9.31585 4.68621 10.5496 3.75 12 3.75V2.25ZM7.45336 5.50773C7.28888 5.99274 7.2 6.51177 7.2 7.05H8.7C8.7 6.67773 8.76135 6.32134 8.8739 5.98946L7.45336 5.50773ZM16.5 4.95C16.2377 4.95 15.9795 4.96929 15.7267 5.00665L15.946 6.49053C16.1264 6.46387 16.3114 6.45 16.5 6.45V4.95ZM12 3.75C13.4504 3.75 14.6841 4.68621 15.1261 5.98946L16.5466 5.50773C15.9045 3.61429 14.1126 2.25 12 2.25V3.75ZM15.1261 5.98946C15.2387 6.32134 15.3 6.67773 15.3 7.05H16.8C16.8 6.51176 16.7111 5.99274 16.5466 5.50773L15.1261 5.98946ZM6.45 17.4V14.3256H4.95V17.4H6.45ZM6.00028 13.6383C4.67428 13.0589 3.75 11.7366 3.75 10.2H2.25C2.25 12.354 3.54709 14.2034 5.39972 15.0128L6.00028 13.6383ZM17.55 14.3256L17.55 17.4H19.05L19.05 14.3256L17.55 14.3256ZM20.25 10.2C20.25 11.7366 19.3257 13.0589 17.9997 13.6383L18.6003 15.0128C20.4529 14.2034 21.75 12.354 21.75 10.2H20.25ZM15.3 7.05V7.5H16.8V7.05H15.3ZM7.2 7.05V7.5H8.7V7.05H7.2Z" fill="#1D2021"/>
<path d="M6 18H18" stroke="#1D2021" stroke-width="1.5" stroke-linecap="round" stroke-linejoin="round"/>
</svg>
