<svg width="24" height="24" viewBox="0 0 24 24" fill="none" xmlns="http://www.w3.org/2000/svg">
<path d="M19.5 8.74137C19.5 7.34004 19.0789 5.96881 18.2877 4.79398C17.4965 3.61916 16.3693 2.69122 15.0427 2.1227C13.7161 1.55419 12.2472 1.36952 10.8141 1.5911C9.38097 1.81268 8.04522 2.43099 6.96884 3.37104C5.89247 4.31108 5.12172 5.53248 4.75006 6.88709C4.37841 8.2417 4.42182 9.67134 4.87503 11.0026C5.32824 12.3339 6.17179 13.5096 7.30335 14.3871C8.43492 15.2646 9.80589 15.8063 11.25 15.9465V18.1552H8.25C8.05109 18.1552 7.86032 18.2315 7.71967 18.3673C7.57902 18.5031 7.5 18.6873 7.5 18.8793C7.5 19.0714 7.57902 19.2556 7.71967 19.3914C7.86032 19.5272 8.05109 19.6034 8.25 19.6034H11.25V21.7759C11.25 21.9679 11.329 22.1521 11.4697 22.2879C11.6103 22.4237 11.8011 22.5 12 22.5C12.1989 22.5 12.3897 22.4237 12.5303 22.2879C12.671 22.1521 12.75 21.9679 12.75 21.7759V19.6034H15.75C15.9489 19.6034 16.1397 19.5272 16.2803 19.3914C16.421 19.2556 16.5 19.0714 16.5 18.8793C16.5 18.6873 16.421 18.5031 16.2803 18.3673C16.1397 18.2315 15.9489 18.1552 15.75 18.1552H12.75V15.9465C14.5991 15.7648 16.3127 14.9276 17.5595 13.5967C18.8063 12.2659 19.4977 10.5359 19.5 8.74137ZM6 8.74137C6 7.59561 6.35189 6.47557 7.01118 5.5229C7.67047 4.57023 8.60754 3.82771 9.7039 3.38924C10.8003 2.95078 12.0067 2.83605 13.1705 3.05958C14.3344 3.28311 15.4035 3.83485 16.2426 4.64503C17.0818 5.45521 17.6532 6.48744 17.8847 7.6112C18.1162 8.73495 17.9974 9.89975 17.5433 10.9583C17.0892 12.0169 16.3201 12.9216 15.3334 13.5582C14.3467 14.1947 13.1867 14.5345 12 14.5345C10.4093 14.5327 8.88417 13.9218 7.75934 12.8358C6.63451 11.7498 6.0018 10.2773 6 8.74137Z" fill="#535353" stroke="#535353" stroke-width="0.00256"/>
</svg>
