<svg width="24" height="24" viewBox="0 0 24 24" fill="none" xmlns="http://www.w3.org/2000/svg">
<path d="M18.7098 8.78866C18.6169 8.69719 18.5063 8.62459 18.3844 8.57505C18.2625 8.52551 18.1318 8.5 17.9998 8.5C17.8678 8.5 17.7371 8.52551 17.6152 8.57505C17.4934 8.62459 17.3828 8.69719 17.2898 8.78866L12.7098 13.2581C12.6169 13.3496 12.5063 13.4222 12.3844 13.4717C12.2625 13.5212 12.1318 13.5468 11.9998 13.5468C11.8678 13.5468 11.7371 13.5212 11.6152 13.4717C11.4934 13.4222 11.3828 13.3496 11.2898 13.2581L6.70982 8.78866C6.61685 8.69719 6.50625 8.62459 6.38439 8.57505C6.26253 8.52551 6.13183 8.5 5.99982 8.5C5.8678 8.5 5.7371 8.52551 5.61524 8.57505C5.49338 8.62459 5.38278 8.69719 5.28982 8.78866C5.10356 8.9715 4.99902 9.21883 4.99902 9.47664C4.99902 9.73445 5.10356 9.98178 5.28982 10.1646L9.87982 14.6438C10.4423 15.1921 11.2048 15.5 11.9998 15.5C12.7948 15.5 13.5573 15.1921 14.1198 14.6438L18.7098 10.1646C18.8961 9.98178 19.0006 9.73445 19.0006 9.47664C19.0006 9.21883 18.8961 8.9715 18.7098 8.78866Z" fill="#535353"/>
</svg>
