<svg width="24" height="24" viewBox="0 0 24 24" fill="none" xmlns="http://www.w3.org/2000/svg">
<path d="M22.3279 9.64182C21.5007 8.29757 20.4573 7.09681 19.239 6.08722L21.8047 3.54107C21.9716 3.36956 22.064 3.13986 22.0619 2.90144C22.0598 2.66301 21.9634 2.43494 21.7935 2.26634C21.6236 2.09774 21.3938 2.00211 21.1536 2.00003C20.9133 1.99796 20.6818 2.08962 20.509 2.25526L17.7188 5.02784C15.9891 4.0083 14.0117 3.47693 12 3.49105C6.32702 3.49105 3.09422 7.34483 1.67208 9.64182C1.23272 10.347 1 11.1597 1 11.9888C1 12.8179 1.23272 13.6306 1.67208 14.3358C2.4993 15.6801 3.54275 16.8808 4.76101 17.8904L2.1953 20.4366C2.10778 20.5205 2.03797 20.6208 1.98995 20.7318C1.94193 20.8427 1.91665 20.962 1.91559 21.0828C1.91453 21.2035 1.93772 21.3232 1.98379 21.435C2.02986 21.5468 2.0979 21.6483 2.18394 21.7337C2.26998 21.819 2.37229 21.8866 2.4849 21.9323C2.59751 21.978 2.71818 22.001 2.83984 22C2.96151 21.9989 3.08175 21.9738 3.19355 21.9262C3.30535 21.8785 3.40646 21.8092 3.49099 21.7224L6.28762 18.9471C8.01514 19.9665 9.99019 20.4987 12 20.4866C17.673 20.4866 20.9058 16.6328 22.3279 14.3358C22.7673 13.6306 23 12.8179 23 11.9888C23 11.1597 22.7673 10.347 22.3279 9.64182ZM3.2335 13.3838C2.97247 12.9646 2.83421 12.4816 2.83421 11.9888C2.83421 11.4961 2.97247 11.0131 3.2335 10.5939C4.45588 8.62427 7.21861 5.30973 12 5.30973C13.5214 5.30127 15.0213 5.66514 16.3672 6.36911L14.5226 8.19961C13.6429 7.62 12.5882 7.36029 11.5375 7.46454C10.4867 7.5688 9.50472 8.0306 8.75804 8.77159C8.01135 9.51257 7.546 10.4871 7.44095 11.5298C7.33589 12.5725 7.5976 13.6192 8.18166 14.4922L6.06495 16.5928C4.94254 15.6923 3.98474 14.6068 3.2335 13.3838ZM14.749 11.9888C14.749 12.7123 14.4594 13.4062 13.9438 13.9178C13.4283 14.4294 12.7291 14.7168 12 14.7168C11.5918 14.7153 11.1892 14.622 10.8225 14.444L14.4741 10.8203C14.6534 11.1842 14.7474 11.5837 14.749 11.9888ZM9.25102 11.9888C9.25102 11.2653 9.54064 10.5714 10.0562 10.0598C10.5717 9.54822 11.2709 9.26081 12 9.26081C12.4082 9.26238 12.8108 9.35564 13.1775 9.53361L9.52592 13.1573C9.34658 12.7934 9.2526 12.3939 9.25102 11.9888ZM20.7665 13.3838C19.5441 15.3534 16.7814 18.6679 12 18.6679C10.4786 18.6764 8.97865 18.3125 7.63278 17.6085L9.47735 15.778C10.3571 16.3577 11.4118 16.6174 12.4625 16.5131C13.5133 16.4089 14.4953 15.9471 15.242 15.2061C15.9886 14.4651 16.454 13.4905 16.5591 12.4478C16.6641 11.4051 16.4024 10.3584 15.8183 9.48541L17.9351 7.38484C19.0575 8.28534 20.0153 9.37088 20.7665 10.5939C21.0275 11.0131 21.1658 11.4961 21.1658 11.9888C21.1658 12.4816 21.0275 12.9646 20.7665 13.3838Z" fill="#535353"/>
</svg>
