<svg width="24" height="24" viewBox="0 0 24 24" fill="none" xmlns="http://www.w3.org/2000/svg">
<path d="M17.991 15.496C17.8595 15.4967 17.7291 15.472 17.6074 15.4233C17.4856 15.3746 17.3749 15.3027 17.2815 15.212L12.7047 10.7167C12.6118 10.6249 12.5013 10.552 12.3795 10.5023C12.2578 10.4526 12.1272 10.427 11.9952 10.427C11.8633 10.427 11.7327 10.4526 11.6109 10.5023C11.4892 10.552 11.3786 10.6249 11.2857 10.7167L6.70898 15.212C6.5208 15.3964 6.26559 15.5 5.99948 15.5C5.73336 15.5 5.47815 15.3964 5.28998 15.212C5.10181 15.0276 4.99609 14.7774 4.99609 14.5166C4.99609 14.3875 5.02205 14.2596 5.07247 14.1403C5.1229 14.021 5.19681 13.9126 5.28998 13.8213L9.87674 9.33577C10.4463 8.7995 11.2054 8.5 11.9952 8.5C12.785 8.5 13.5442 8.7995 14.1137 9.33577L18.7005 13.8213C18.7942 13.9123 18.8685 14.0206 18.9192 14.14C18.97 14.2593 18.9961 14.3873 18.9961 14.5166C18.9961 14.6459 18.97 14.7739 18.9192 14.8933C18.8685 15.0126 18.7942 15.1209 18.7005 15.212C18.6071 15.3027 18.4964 15.3746 18.3746 15.4233C18.2529 15.472 18.1225 15.4967 17.991 15.496Z" fill="#535353"/>
</svg>
