<svg width="25" height="24" viewBox="0 0 25 24" fill="none" xmlns="http://www.w3.org/2000/svg">
<path d="M22.6003 20.5889L17.6302 15.6188C18.9846 13.9623 19.6505 11.8487 19.4902 9.71497C19.3299 7.58128 18.3556 5.59083 16.7689 4.15534C15.1821 2.71984 13.1044 1.94913 10.9653 2.00261C8.82631 2.05609 6.78966 2.92968 5.27666 4.44268C3.76366 5.95568 2.89008 7.99233 2.83659 10.1314C2.78311 12.2704 3.55383 14.3482 4.98932 15.9349C6.42482 17.5216 8.41526 18.4959 10.549 18.6562C12.6826 18.8165 14.7963 18.1506 16.4528 16.7962L21.4229 21.7663C21.5799 21.9179 21.7903 22.0019 22.0086 22C22.2269 21.9981 22.4357 21.9105 22.5901 21.7561C22.7445 21.6017 22.8321 21.3929 22.834 21.1746C22.8359 20.9563 22.7519 20.7459 22.6003 20.5889ZM11.1871 17.0143C9.86967 17.0143 8.58179 16.6237 7.48637 15.8917C6.39094 15.1598 5.53716 14.1194 5.03299 12.9023C4.52882 11.6851 4.3969 10.3458 4.65393 9.05361C4.91095 7.76146 5.54537 6.57455 6.47695 5.64297C7.40854 4.71138 8.59545 4.07697 9.88759 3.81994C11.1797 3.56292 12.5191 3.69483 13.7363 4.199C14.9534 4.70317 15.9938 5.55695 16.7257 6.65238C17.4576 7.74781 17.8483 9.03568 17.8483 10.3531C17.8463 12.1192 17.1439 13.8123 15.8951 15.0611C14.6463 16.3099 12.9532 17.0124 11.1871 17.0143Z" fill="#919191"/>
</svg>
