<svg width="24" height="24" viewBox="0 0 24 24" fill="none" xmlns="http://www.w3.org/2000/svg">
<path d="M22.3279 9.51429C20.9067 7.08154 17.6739 3 12 3C6.3261 3 3.0933 7.08154 1.67208 9.51429C1.23272 10.2612 1 11.1219 1 12C1 12.8781 1.23272 13.7388 1.67208 14.4857C3.0933 16.9185 6.3261 21 12 21C17.6739 21 20.9067 16.9185 22.3279 14.4857C22.7673 13.7388 23 12.8781 23 12C23 11.1219 22.7673 10.2612 22.3279 9.51429ZM20.7656 13.4774C19.545 15.5634 16.7823 19.0738 12 19.0738C7.21769 19.0738 4.45496 15.5634 3.23441 13.4774C2.97338 13.0334 2.83512 12.5219 2.83512 12C2.83512 11.4781 2.97338 10.9666 3.23441 10.5226C4.45496 8.4366 7.21769 4.92616 12 4.92616C16.7823 4.92616 19.545 8.43274 20.7656 10.5226C21.0266 10.9666 21.1649 11.4781 21.1649 12C21.1649 12.5219 21.0266 13.0334 20.7656 13.4774Z" fill="#535353"/>
<path d="M12 7.99988C11.2089 7.99988 10.4355 8.23447 9.77772 8.674C9.11992 9.11353 8.60723 9.73824 8.30448 10.4691C8.00173 11.2 7.92252 12.0043 8.07686 12.7802C8.2312 13.5562 8.61216 14.2689 9.17157 14.8283C9.73098 15.3877 10.4437 15.7687 11.2196 15.923C11.9956 16.0774 12.7998 15.9981 13.5307 15.6954C14.2616 15.3926 14.8864 14.88 15.3259 14.2222C15.7654 13.5644 16 12.791 16 11.9999C15.9987 10.9394 15.5769 9.92272 14.827 9.17285C14.0772 8.42298 13.0605 8.00115 12 7.99988ZM12 14.3999C11.5253 14.3999 11.0613 14.2591 10.6666 13.9954C10.272 13.7317 9.96434 13.3569 9.78269 12.9183C9.60104 12.4798 9.55351 11.9972 9.64612 11.5317C9.73872 11.0661 9.9673 10.6385 10.3029 10.3028C10.6386 9.96718 11.0662 9.7386 11.5318 9.64599C11.9973 9.55339 12.4799 9.60092 12.9184 9.78257C13.357 9.96422 13.7318 10.2718 13.9955 10.6665C14.2592 11.0612 14.4 11.5252 14.4 11.9999C14.4 12.6364 14.1471 13.2468 13.6971 13.6969C13.247 14.147 12.6365 14.3999 12 14.3999Z" fill="#535353"/>
</svg>
