<svg width="24" height="24" viewBox="0 0 24 24" fill="none" xmlns="http://www.w3.org/2000/svg">
<path d="M10.7321 12.7103C10.6407 12.6174 10.5681 12.5068 10.5185 12.3849C10.469 12.2631 10.4435 12.1324 10.4435 12.0004C10.4435 11.8684 10.469 11.7377 10.5185 11.6158C10.5681 11.494 10.6407 11.3834 10.7321 11.2904L15.2113 6.71069C15.3028 6.61774 15.3754 6.50714 15.425 6.38529C15.4745 6.26344 15.5 6.13274 15.5 6.00073C15.5 5.86873 15.4745 5.73803 15.425 5.61618C15.3754 5.49433 15.3028 5.38373 15.2113 5.29078C15.0285 5.10454 14.7812 5 14.5234 5C14.2656 5 14.0182 5.10454 13.8354 5.29078L9.35618 9.88051C8.80794 10.443 8.5 11.2054 8.5 12.0004C8.5 12.7953 8.80794 13.5578 9.35618 14.1203L13.8354 18.71C14.0171 18.8947 14.2625 18.9989 14.5185 19C14.6469 19.0007 14.7742 18.9755 14.8931 18.9258C15.012 18.876 15.1202 18.8027 15.2113 18.71C15.3028 18.617 15.3754 18.5064 15.425 18.3846C15.4745 18.2627 15.5 18.132 15.5 18C15.5 17.868 15.4745 17.7373 15.425 17.6155C15.3754 17.4936 15.3028 17.383 15.2113 17.2901L10.7321 12.7103Z" fill="#6C7C0D"/>
</svg>
