<svg width="24" height="24" viewBox="0 0 24 24" fill="none" xmlns="http://www.w3.org/2000/svg">
<path d="M18.7566 6.61335L15.7952 3.70835C15.2439 3.16513 14.5881 2.73446 13.8659 2.44123C13.1437 2.14801 12.3694 1.99805 11.5877 2.00002H7.74999C6.62324 2.00134 5.54302 2.44075 4.74629 3.22187C3.94955 4.00298 3.50135 5.06202 3.5 6.16668V17.8333C3.50135 18.938 3.94955 19.997 4.74629 20.7782C5.54302 21.5593 6.62324 21.9987 7.74999 22H16.25C17.3767 21.9987 18.457 21.5593 19.2537 20.7782C20.0504 19.997 20.4986 18.938 20.5 17.8333V10.7375C20.5021 9.9712 20.3491 9.21209 20.0498 8.50416C19.7506 7.79623 19.311 7.15355 18.7566 6.61335ZM17.5547 7.79168C17.8143 8.05347 18.0375 8.34767 18.2186 8.66668H14.55C14.3246 8.66668 14.1084 8.57888 13.9489 8.4226C13.7895 8.26632 13.7 8.05436 13.7 7.83335V4.23668C14.0255 4.41412 14.3258 4.63265 14.5933 4.88668L17.5547 7.79168ZM18.8 17.8333C18.8 18.4964 18.5313 19.1323 18.0531 19.6011C17.5749 20.0699 16.9263 20.3333 16.25 20.3333H7.74999C7.07369 20.3333 6.42509 20.0699 5.94687 19.6011C5.46866 19.1323 5.2 18.4964 5.2 17.8333V6.16668C5.2 5.50364 5.46866 4.86776 5.94687 4.39892C6.42509 3.93008 7.07369 3.66668 7.74999 3.66668H11.5877C11.7271 3.66668 11.8623 3.69335 12 3.70585V7.83335C12 8.49639 12.2686 9.13227 12.7469 9.60111C13.2251 10.07 13.8737 10.3333 14.55 10.3333H18.76C18.7728 10.4683 18.8 10.6 18.8 10.7375V17.8333Z" fill="#1D2021"/>
</svg>
