<svg width="24" height="24" viewBox="0 0 24 24" fill="none" xmlns="http://www.w3.org/2000/svg">
<path d="M20.5745 5.25116L9.05963 17.0439C8.98221 17.1235 8.89021 17.1867 8.7889 17.2298C8.68759 17.2729 8.57897 17.295 8.46926 17.295C8.35956 17.295 8.25094 17.2729 8.14963 17.2298C8.04832 17.1867 7.95632 17.1235 7.8789 17.0439L3.42595 12.4789C3.34853 12.3993 3.25653 12.3361 3.15522 12.293C3.05391 12.2499 2.94529 12.2277 2.83559 12.2277C2.72588 12.2277 2.61726 12.2499 2.51595 12.293C2.41464 12.3361 2.32264 12.3993 2.24522 12.4789C2.1675 12.5582 2.10582 12.6524 2.06374 12.7562C2.02166 12.8599 2 12.9712 2 13.0835C2 13.1959 2.02166 13.3071 2.06374 13.4109C2.10582 13.5147 2.1675 13.6089 2.24522 13.6882L6.69983 18.2498C7.16975 18.7302 7.80657 19 8.47051 19C9.13446 19 9.77128 18.7302 10.2412 18.2498L21.7552 6.45962C21.8328 6.38034 21.8944 6.28616 21.9364 6.18248C21.9784 6.0788 22 5.96764 22 5.85539C22 5.74313 21.9784 5.63198 21.9364 5.52829C21.8944 5.42461 21.8328 5.33043 21.7552 5.25116C21.6778 5.17155 21.5858 5.10839 21.4845 5.06529C21.3832 5.02219 21.2745 5 21.1648 5C21.0551 5 20.9465 5.02219 20.8452 5.06529C20.7439 5.10839 20.6519 5.17155 20.5745 5.25116Z" fill="url(#paint0_linear_382_3911)"/>
<defs>
<linearGradient id="paint0_linear_382_3911" x1="20.9796" y1="5" x2="2.45965" y2="5.57236" gradientUnits="userSpaceOnUse">
<stop stop-color="#89C77A"/>
<stop offset="1" stop-color="#95B84B"/>
</linearGradient>
</defs>
</svg>
