<svg width="25" height="24" viewBox="0 0 25 24" fill="none" xmlns="http://www.w3.org/2000/svg">
<path d="M22.6942 9.29863L15.7413 2.34063C14.8808 1.4821 13.7152 1 12.5 1C11.2848 1 10.1192 1.4821 9.25867 2.34063L2.30576 9.29863C2.04948 9.55342 1.8463 9.85657 1.70799 10.1905C1.56967 10.5245 1.49898 10.8826 1.50001 11.244V20.2484C1.50001 20.9781 1.78974 21.678 2.30547 22.1941C2.82119 22.7101 3.52066 23 4.25001 23H20.75C21.4793 23 22.1788 22.7101 22.6945 22.1941C23.2103 21.678 23.5 20.9781 23.5 20.2484V11.244C23.501 10.8826 23.4303 10.5245 23.292 10.1905C23.1537 9.85657 22.9505 9.55342 22.6942 9.29863ZM15.25 21.1656H9.75V17.5572C9.75 16.8275 10.0397 16.1276 10.5555 15.6115C11.0712 15.0955 11.7707 14.8056 12.5 14.8056C13.2293 14.8056 13.9288 15.0955 14.4445 15.6115C14.9603 16.1276 15.25 16.8275 15.25 17.5572V21.1656ZM21.6667 20.2484C21.6667 20.4916 21.5701 20.7249 21.3982 20.8969C21.2263 21.0689 20.9931 21.1656 20.75 21.1656H17.0833V17.5572C17.0833 16.3409 16.6004 15.1744 15.7409 14.3144C14.8814 13.4543 13.7156 12.9712 12.5 12.9712C11.2844 12.9712 10.1186 13.4543 9.2591 14.3144C8.39956 15.1744 7.91667 16.3409 7.91667 17.5572V21.1656H4.25001C4.00689 21.1656 3.77374 21.0689 3.60183 20.8969C3.42992 20.7249 3.33334 20.4916 3.33334 20.2484V11.244C3.33419 11.001 3.43068 10.768 3.60193 10.5956L10.5548 3.64032C11.0716 3.1257 11.7709 2.83679 12.5 2.83679C13.2291 2.83679 13.9284 3.1257 14.4452 3.64032L21.3981 10.5983C21.5687 10.7701 21.6651 11.0019 21.6667 11.244V20.2484Z" fill="#919191"/>
</svg>
