<svg width="25" height="24" viewBox="0 0 25 24" fill="none" xmlns="http://www.w3.org/2000/svg">
<path d="M12.5 8.00049C11.7089 8.00049 10.9355 8.23508 10.2777 8.67461C9.61993 9.11414 9.10723 9.73885 8.80448 10.4698C8.50173 11.2007 8.42252 12.0049 8.57686 12.7808C8.7312 13.5568 9.11216 14.2695 9.67157 14.8289C10.231 15.3883 10.9437 15.7693 11.7196 15.9236C12.4956 16.078 13.2998 15.9988 14.0307 15.696C14.7616 15.3933 15.3864 14.8806 15.8259 14.2228C16.2654 13.565 16.5 12.7916 16.5 12.0005C16.5 10.9396 16.0786 9.92221 15.3284 9.17206C14.5783 8.42192 13.5609 8.00049 12.5 8.00049ZM12.5 14.0005C12.1044 14.0005 11.7178 13.8832 11.3889 13.6634C11.06 13.4437 10.8036 13.1313 10.6522 12.7659C10.5009 12.4004 10.4613 11.9983 10.5384 11.6103C10.6156 11.2223 10.8061 10.866 11.0858 10.5863C11.3655 10.3066 11.7219 10.1161 12.1098 10.0389C12.4978 9.96175 12.8999 10.0014 13.2654 10.1527C13.6308 10.3041 13.9432 10.5604 14.1629 10.8893C14.3827 11.2182 14.5 11.6049 14.5 12.0005C14.5 12.5309 14.2893 13.0396 13.9142 13.4147C13.5391 13.7898 13.0304 14.0005 12.5 14.0005Z" fill="#919191"/>
<path d="M21.969 13.7417L21.5167 13.507C21.7203 12.5101 21.7203 11.4881 21.5167 10.4912L21.969 10.2565C22.3169 10.0759 22.6218 9.83549 22.8664 9.54889C23.111 9.26229 23.2904 8.93516 23.3945 8.58617C23.4986 8.23717 23.5252 7.87315 23.4729 7.51489C23.4206 7.15664 23.2904 6.81115 23.0897 6.49817C22.8891 6.18518 22.6218 5.91083 22.3033 5.69077C21.9847 5.47071 21.6211 5.30926 21.2332 5.21562C20.8454 5.12199 20.4408 5.09802 20.0426 5.14506C19.6444 5.19211 19.2604 5.30927 18.9125 5.48983L18.4592 5.72542C17.6029 5.06718 16.6188 4.55689 15.5565 4.22025V3.75C15.5565 3.02065 15.2345 2.32118 14.6613 1.80546C14.0881 1.28973 13.3106 1 12.5 1C11.6894 1 10.9119 1.28973 10.3387 1.80546C9.76553 2.32118 9.4435 3.02065 9.4435 3.75V4.22025C8.38126 4.5581 7.39753 5.06963 6.54187 5.72908L6.08645 5.49167C5.3839 5.12699 4.54912 5.02836 3.76574 5.21746C2.98236 5.40656 2.31455 5.8679 1.90924 6.5C1.50392 7.1321 1.39429 7.88318 1.60447 8.588C1.81464 9.29282 2.3274 9.89366 3.02995 10.2583L3.48232 10.493C3.27866 11.4899 3.27866 12.5119 3.48232 13.5088L3.02995 13.7435C2.3274 14.1082 1.81464 14.709 1.60447 15.4138C1.39429 16.1187 1.50392 16.8697 1.90924 17.5018C2.31455 18.1339 2.98236 18.5953 3.76574 18.7844C4.54912 18.9735 5.3839 18.8748 6.08645 18.5102L6.53983 18.2746C7.39643 18.9329 8.38084 19.4432 9.4435 19.7798V20.25C9.4435 20.9793 9.76553 21.6788 10.3387 22.1945C10.9119 22.7103 11.6894 23 12.5 23C13.3106 23 14.0881 22.7103 14.6613 22.1945C15.2345 21.6788 15.5565 20.9793 15.5565 20.25V19.7798C16.6187 19.4419 17.6025 18.9304 18.4581 18.2709L18.9136 18.5074C19.6161 18.8721 20.4509 18.9707 21.2343 18.7816C22.0176 18.5925 22.6854 18.1312 23.0908 17.4991C23.4961 16.867 23.6057 16.1159 23.3955 15.4111C23.1854 14.7063 22.6726 14.1054 21.97 13.7408L21.969 13.7417ZM19.373 10.2803C19.7181 11.4051 19.7181 12.593 19.373 13.7178C19.3128 13.9136 19.3265 14.1218 19.4121 14.3098C19.4977 14.4978 19.6502 14.6549 19.8458 14.7564L20.9502 15.3303C21.1843 15.4518 21.3552 15.6521 21.4252 15.887C21.4953 16.1219 21.4587 16.3722 21.3236 16.5829C21.1885 16.7935 20.9659 16.9473 20.7048 17.0103C20.4437 17.0733 20.1655 17.0404 19.9314 16.9188L18.8249 16.3432C18.6292 16.2412 18.4013 16.2007 18.1772 16.2281C17.9531 16.2554 17.7454 16.3492 17.587 16.4944C16.6802 17.3274 15.5377 17.9216 14.283 18.2132C14.0639 18.2638 13.8699 18.3786 13.7314 18.5394C13.5928 18.7002 13.5177 18.898 13.5178 19.1014V20.25C13.5178 20.4931 13.4105 20.7263 13.2194 20.8982C13.0283 21.0701 12.7692 21.1667 12.499 21.1667C12.2288 21.1667 11.9696 21.0701 11.7786 20.8982C11.5875 20.7263 11.4801 20.4931 11.4801 20.25V19.1023C11.4803 18.8989 11.4051 18.7012 11.2666 18.5403C11.1281 18.3795 10.934 18.2647 10.715 18.2141C9.46016 17.9214 8.31803 17.3258 7.41195 16.4917C7.25355 16.3464 7.04592 16.2527 6.8218 16.2253C6.59767 16.1979 6.36979 16.2384 6.17407 16.3404L5.06966 16.9152C4.95374 16.9763 4.82553 17.0162 4.69241 17.0326C4.55928 17.049 4.42387 17.0415 4.29397 17.0106C4.16407 16.9797 4.04225 16.926 3.93551 16.8525C3.82878 16.7791 3.73924 16.6874 3.67206 16.5827C3.60488 16.478 3.56137 16.3624 3.54405 16.2425C3.52673 16.1226 3.53594 16.0009 3.57115 15.8842C3.60635 15.7675 3.66686 15.6583 3.74918 15.5627C3.8315 15.4672 3.93402 15.3873 4.05082 15.3275L5.15524 14.7537C5.3508 14.6521 5.50335 14.4951 5.58891 14.3071C5.67448 14.1191 5.68822 13.9109 5.62798 13.7151C5.28296 12.5903 5.28296 11.4024 5.62798 10.2776C5.68714 10.0822 5.67274 9.87474 5.58703 9.68752C5.50133 9.5003 5.34914 9.34387 5.15422 9.24267L4.0498 8.66883C3.81567 8.54728 3.64479 8.34701 3.57476 8.1121C3.50474 7.87719 3.5413 7.62687 3.6764 7.41621C3.81151 7.20555 4.03409 7.05181 4.29519 6.9888C4.55628 6.9258 4.8345 6.95869 5.06864 7.08025L6.17509 7.65592C6.37028 7.75814 6.59768 7.79911 6.82157 7.7724C7.04545 7.74568 7.25313 7.6528 7.41195 7.50833C8.3188 6.6754 9.46126 6.0811 10.716 5.78958C10.9357 5.73877 11.1303 5.62344 11.2689 5.46188C11.4075 5.30031 11.4822 5.10176 11.4812 4.89767V3.75C11.4812 3.50688 11.5885 3.27373 11.7796 3.10182C11.9706 2.92991 12.2298 2.83333 12.5 2.83333C12.7702 2.83333 13.0294 2.92991 13.2204 3.10182C13.4115 3.27373 13.5188 3.50688 13.5188 3.75V4.89767C13.5187 5.10113 13.5938 5.29884 13.7324 5.45966C13.8709 5.62047 14.065 5.73526 14.284 5.78592C15.5392 6.07847 16.6817 6.67406 17.588 7.50833C17.7465 7.65359 17.9541 7.7473 18.1782 7.77469C18.4023 7.80207 18.6302 7.76158 18.8259 7.65958L19.9303 7.08483C20.0463 7.02369 20.1745 6.98379 20.3076 6.96741C20.4407 6.95103 20.5761 6.95851 20.706 6.98941C20.8359 7.02031 20.9578 7.07402 21.0645 7.14745C21.1712 7.22089 21.2608 7.31259 21.3279 7.41728C21.3951 7.52198 21.4386 7.63759 21.4559 7.75747C21.4733 7.87736 21.4641 7.99913 21.4289 8.1158C21.3936 8.23247 21.3331 8.34172 21.2508 8.43726C21.1685 8.5328 21.066 8.61275 20.9492 8.6725L19.8448 9.24633C19.6502 9.34781 19.4984 9.50435 19.4131 9.69155C19.3278 9.87875 19.3137 10.0861 19.373 10.2812V10.2803Z" fill="#919191"/>
</svg>
