<svg width="24" height="24" viewBox="0 0 24 24" fill="none" xmlns="http://www.w3.org/2000/svg">
<path d="M16.5815 3.5C15.6435 3.51411 14.726 3.76742 13.9215 4.23434C13.1171 4.70126 12.4543 5.36525 12 6.15927C11.5457 5.36525 10.8829 4.70126 10.0785 4.23434C9.27405 3.76742 8.35651 3.51411 7.41852 3.5C5.92324 3.56285 4.51444 4.19564 3.49991 5.26014C2.48539 6.32464 1.9476 7.7343 2.00403 9.18117C2.00403 12.8453 5.99076 16.8471 9.33441 19.5604C10.081 20.1673 11.0249 20.5 12 20.5C12.9751 20.5 13.919 20.1673 14.6656 19.5604C18.0092 16.8471 21.996 12.8453 21.996 9.18117C22.0524 7.7343 21.5146 6.32464 20.5001 5.26014C19.4856 4.19564 18.0768 3.56285 16.5815 3.5ZM13.5952 18.3274C13.1487 18.6912 12.5837 18.8906 12 18.8906C11.4163 18.8906 10.8513 18.6912 10.4048 18.3274C6.12487 14.8535 3.67003 11.5205 3.67003 9.18117C3.61308 8.16155 3.97521 7.16151 4.67742 6.39917C5.37964 5.63682 6.36497 5.17401 7.41852 5.11168C8.47206 5.17401 9.45739 5.63682 10.1596 6.39917C10.8618 7.16151 11.2239 8.16155 11.167 9.18117C11.167 9.39489 11.2548 9.59985 11.411 9.75098C11.5672 9.9021 11.7791 9.987 12 9.987C12.2209 9.987 12.4328 9.9021 12.589 9.75098C12.7452 9.59985 12.833 9.39489 12.833 9.18117C12.7761 8.16155 13.1382 7.16151 13.8404 6.39917C14.5426 5.63682 15.5279 5.17401 16.5815 5.11168C17.635 5.17401 18.6204 5.63682 19.3226 6.39917C20.0248 7.16151 20.3869 8.16155 20.33 9.18117C20.33 11.5205 17.8751 14.8535 13.5952 18.3242V18.3274Z" fill="#1D2021"/>
</svg>
