<svg width="24" height="24" viewBox="0 0 24 24" fill="none" xmlns="http://www.w3.org/2000/svg">
<path d="M20.9964 3.64885C20.9954 3.63861 20.9935 3.62868 20.992 3.61857C20.9902 3.60543 20.9886 3.59225 20.986 3.5792C20.9837 3.56742 20.9804 3.55595 20.9775 3.54435C20.9747 3.53319 20.9723 3.52198 20.9689 3.51091C20.9655 3.49952 20.9612 3.48854 20.9572 3.47738C20.9532 3.46635 20.9496 3.45523 20.9451 3.44437C20.9408 3.434 20.9357 3.42407 20.931 3.41392C20.9257 3.40276 20.9208 3.39151 20.9149 3.38057C20.9097 3.37085 20.9038 3.36167 20.8982 3.35222C20.8918 3.34149 20.8857 3.33059 20.8787 3.32014C20.8718 3.30994 20.8642 3.30032 20.8569 3.29052C20.8502 3.28151 20.8439 3.27228 20.8367 3.26349C20.823 3.24684 20.8085 3.23093 20.7933 3.21555C20.7919 3.21401 20.7906 3.21234 20.7891 3.21084C20.7874 3.20913 20.7855 3.20772 20.7838 3.20605C20.7686 3.19116 20.7529 3.17674 20.7364 3.16321C20.7282 3.15648 20.7195 3.1506 20.7111 3.14431C20.7007 3.13649 20.6905 3.12844 20.6796 3.12119C20.67 3.11469 20.6599 3.10911 20.65 3.10317C20.6397 3.09698 20.6296 3.09056 20.619 3.08489C20.6092 3.07966 20.5991 3.07523 20.5891 3.07048C20.5778 3.06507 20.5667 3.05949 20.555 3.05466C20.5457 3.05084 20.5362 3.04776 20.5268 3.04433C20.514 3.03967 20.5014 3.03484 20.4883 3.03089C20.4795 3.0282 20.4706 3.02636 20.4617 3.02403C20.4478 3.02043 20.4341 3.0166 20.4199 3.01383C20.4105 3.01199 20.4011 3.01098 20.3917 3.00953C20.3779 3.00737 20.3643 3.00491 20.3503 3.00355C20.336 3.00215 20.3217 3.00193 20.3073 3.00135C20.2982 3.00105 20.2892 3 20.28 3H15.96C15.7691 3 15.586 3.07586 15.4509 3.21088C15.3159 3.34591 15.24 3.52904 15.24 3.72C15.24 3.91095 15.3159 4.09409 15.4509 4.22911C15.586 4.36414 15.7691 4.43999 15.96 4.43999H18.5418L14.7566 8.22516C13.3264 7.05618 11.5016 6.48158 9.65965 6.62021C7.8177 6.75885 6.09948 7.6001 4.86036 8.97C3.62124 10.3399 2.95601 12.1336 3.00226 13.9802C3.0485 15.8268 3.80268 17.585 5.10882 18.8911C6.41495 20.1973 8.17313 20.9515 10.0197 20.9977C11.8663 21.044 13.66 20.3788 15.0299 19.1397C16.3998 17.9006 17.2411 16.1823 17.3797 14.3404C17.5184 12.4984 16.9438 10.6736 15.7748 9.24342L19.56 5.45825V8.03998C19.56 8.23093 19.6359 8.41407 19.7709 8.54909C19.9059 8.68412 20.0891 8.75998 20.28 8.75998C20.471 8.75998 20.6541 8.68412 20.7891 8.54909C20.9241 8.41407 21 8.23093 21 8.03998V3.72022C21 3.6964 20.9987 3.67258 20.9964 3.64885ZM14.273 17.8729C13.4676 18.6775 12.4418 19.2253 11.3251 19.447C10.2085 19.6687 9.05117 19.5544 7.99949 19.1184C6.94781 18.6825 6.04898 17.9446 5.41661 16.9979C4.78424 16.0513 4.44672 14.9384 4.44672 13.8C4.44672 12.6615 4.78424 11.5486 5.41661 10.602C6.04898 9.65531 6.94781 8.91738 7.99949 8.48147C9.05117 8.04556 10.2085 7.93122 11.3251 8.15293C12.4418 8.37463 13.4676 8.92241 14.273 9.72703C15.3516 10.8081 15.9574 12.2728 15.9574 13.8C15.9574 15.3271 15.3516 16.7918 14.273 17.8729Z" fill="#535353"/>
</svg>
