<svg width="24" height="25" viewBox="0 0 24 25" fill="none" xmlns="http://www.w3.org/2000/svg">
<path d="M7.5 1.60913C4.629 1.60913 3 3.19129 3 5.98074V22.3742C3 23.1588 3.80437 23.7078 4.54688 23.3988L12.0022 18.0015L19.4182 23.3988C20.1607 23.7078 21 23.1588 21 22.3742V5.98074C21 3.11363 19.5319 1.60913 16.5 1.60913H7.5ZM7.5 3.79488H16.5C18.2618 3.79488 18.75 4.29532 18.75 5.98074V20.7348L12.5647 15.8138C12.2812 15.696 11.7221 15.696 11.4397 15.8138L5.25 20.7348V5.98074C5.25 4.39847 5.871 3.79488 7.5 3.79488Z" fill="#6C7C0D"/>
</svg>
