<svg width="24" height="24" viewBox="0 0 24 24" fill="none" xmlns="http://www.w3.org/2000/svg">
<path d="M19.4963 2.17589C19.4953 2.16522 19.4934 2.15488 19.4919 2.14435C19.49 2.13066 19.4884 2.11693 19.4858 2.10333C19.4834 2.09106 19.4801 2.07912 19.4772 2.06703C19.4743 2.05541 19.4718 2.04373 19.4684 2.0322C19.4649 2.02034 19.4606 2.0089 19.4565 1.99727C19.4525 1.98578 19.4488 1.9742 19.4442 1.96289C19.4398 1.95209 19.4347 1.94174 19.4299 1.93117C19.4245 1.91954 19.4195 1.90782 19.4135 1.89642C19.4082 1.88631 19.4022 1.87674 19.3965 1.8669C19.39 1.85573 19.3838 1.84438 19.3767 1.83348C19.3697 1.82286 19.362 1.81284 19.3546 1.80263C19.3477 1.79324 19.3414 1.78363 19.334 1.77447C19.3201 1.75713 19.3053 1.74055 19.29 1.72453C19.2885 1.72293 19.2872 1.72119 19.2857 1.71963C19.2839 1.7178 19.2819 1.71634 19.2802 1.71451C19.2647 1.69904 19.2488 1.68411 19.2321 1.67006C19.2235 1.66278 19.2144 1.65646 19.2056 1.64969C19.1953 1.64181 19.1852 1.63367 19.1746 1.62634C19.1643 1.61929 19.1536 1.61316 19.1431 1.60671C19.1331 1.60062 19.1233 1.59421 19.1131 1.58853C19.1026 1.58277 19.0917 1.57791 19.081 1.57269C19.0701 1.56738 19.0593 1.5618 19.0481 1.55704C19.0379 1.55274 19.0276 1.5493 19.0173 1.54551C19.005 1.54093 18.9929 1.53617 18.9803 1.53223C18.9704 1.52921 18.9603 1.52697 18.9503 1.52436C18.9372 1.52092 18.9242 1.51717 18.9109 1.51447C18.8998 1.51223 18.8886 1.51099 18.8775 1.50925C18.865 1.50733 18.8527 1.50499 18.84 1.50371C18.8216 1.50188 18.803 1.50129 18.7845 1.50083C18.7791 1.50073 18.7738 1.5 18.7683 1.5H15.1098C14.9157 1.5 14.7296 1.57902 14.5924 1.71967C14.4551 1.86032 14.378 2.05109 14.378 2.25C14.378 2.44891 14.4551 2.63968 14.5924 2.78033C14.7296 2.92098 14.9157 3 15.1098 3H17.0018L14.767 5.29065C14.0298 4.64197 13.1546 4.1794 12.2115 3.94003C11.2685 3.70067 10.2838 3.69119 9.3365 3.91234C8.38921 4.13348 7.50567 4.57911 6.75675 5.21348C6.00783 5.84784 5.41437 6.65328 5.02398 7.56519C4.6336 8.4771 4.45715 9.4701 4.50879 10.4645C4.56043 11.459 4.83872 12.4271 5.32134 13.2914C5.80397 14.1557 6.47748 14.892 7.28787 15.4413C8.09826 15.9906 9.02296 16.3376 9.98781 16.4544V18.375H7.79268C7.59862 18.375 7.41251 18.454 7.27529 18.5947C7.13807 18.7353 7.06098 18.9261 7.06098 19.125C7.06098 19.3239 7.13807 19.5147 7.27529 19.6553C7.41251 19.796 7.59862 19.875 7.79268 19.875H9.98781V21.75C9.98781 21.9489 10.0649 22.1397 10.2021 22.2803C10.3393 22.421 10.5255 22.5 10.7195 22.5C10.9136 22.5 11.0997 22.421 11.2369 22.2803C11.3741 22.1397 11.4512 21.9489 11.4512 21.75V19.875H13.6463C13.8404 19.875 14.0265 19.796 14.1637 19.6553C14.301 19.5147 14.378 19.3239 14.378 19.125C14.378 18.9261 14.301 18.7353 14.1637 18.5947C14.0265 18.454 13.8404 18.375 13.6463 18.375H11.4512V16.4544C12.527 16.3248 13.5511 15.9091 14.4218 15.2486C15.2926 14.5882 15.9797 13.7058 16.4151 12.6891C16.8505 11.6725 17.019 10.5568 16.9038 9.45275C16.7887 8.34873 16.394 7.29474 15.7589 6.39532L18.0366 4.06069V6C18.0366 6.19891 18.1137 6.38968 18.2509 6.53033C18.3881 6.67098 18.5742 6.75 18.7683 6.75C18.9624 6.75 19.1485 6.67098 19.2857 6.53033C19.4229 6.38968 19.5 6.19891 19.5 6V2.25023C19.5 2.22542 19.4987 2.20061 19.4963 2.17589ZM10.7195 15C9.77885 15 8.8593 14.7141 8.07717 14.1784C7.29503 13.6427 6.68543 12.8814 6.32545 11.9906C5.96547 11.0998 5.87129 10.1196 6.0548 9.17393C6.23832 8.22828 6.69129 7.35964 7.35644 6.67785C8.0216 5.99607 8.86905 5.53177 9.79164 5.34367C10.7142 5.15557 11.6705 5.25211 12.5396 5.62109C13.4087 5.99006 14.1515 6.61491 14.6741 7.4166C15.1967 8.21829 15.4756 9.16082 15.4756 10.125C15.4742 11.4175 14.9726 12.6566 14.081 13.5705C13.1894 14.4845 11.9805 14.9985 10.7195 15Z" fill="#535353" stroke="#535353" stroke-width="0.00256"/>
</svg>
