<svg width="25" height="24" viewBox="0 0 25 24" fill="none" xmlns="http://www.w3.org/2000/svg">
<g clip-path="url(#clip0_395_348)">
<path d="M18.666 9H5.66602C5.11373 9 4.66602 9.44772 4.66602 10V20C4.66602 20.5523 5.11373 21 5.66602 21H18.666C19.2183 21 19.666 20.5523 19.666 20V10C19.666 9.44772 19.2183 9 18.666 9Z" stroke="#919191" stroke-width="2"/>
<path d="M8.66602 14C9.2183 14 9.66602 13.5523 9.66602 13C9.66602 12.4477 9.2183 12 8.66602 12C8.11373 12 7.66602 12.4477 7.66602 13C7.66602 13.5523 8.11373 14 8.66602 14Z" fill="#919191"/>
<path d="M15.666 14C16.2183 14 16.666 13.5523 16.666 13C16.666 12.4477 16.2183 12 15.666 12C15.1137 12 14.666 12.4477 14.666 13C14.666 13.5523 15.1137 14 15.666 14Z" fill="#919191"/>
<path d="M10.166 16C9.61372 16 9.16602 16.4477 9.16602 17C9.16602 17.5523 9.61372 18 10.166 18V16ZM14.166 18C14.7183 18 15.166 17.5523 15.166 17C15.166 16.4477 14.7183 16 14.166 16V18ZM10.166 18H14.166V16H10.166V18Z" fill="#919191"/>
<path d="M12.166 5V9" stroke="#919191" stroke-width="2" stroke-linecap="round" stroke-linejoin="round"/>
<path d="M2.16602 13V17" stroke="#919191" stroke-width="2" stroke-linecap="round" stroke-linejoin="round"/>
<path d="M22.166 13V17" stroke="#919191" stroke-width="2" stroke-linecap="round" stroke-linejoin="round"/>
<path d="M12.166 5C12.7183 5 13.166 4.55228 13.166 4C13.166 3.44772 12.7183 3 12.166 3C11.6137 3 11.166 3.44772 11.166 4C11.166 4.55228 11.6137 5 12.166 5Z" stroke="#919191" stroke-width="2"/>
</g>
<defs>
<clipPath id="clip0_395_348">
<rect width="24" height="24" fill="white" transform="translate(0.166016)"/>
</clipPath>
</defs>
</svg>
