<svg width="24" height="24" viewBox="0 0 24 24" fill="none" xmlns="http://www.w3.org/2000/svg">
<path d="M8.96889 13.359L15.04 16.941M15.0311 7.059L8.96889 10.641M20 5.7C20 7.19117 18.8061 8.4 17.3333 8.4C15.8606 8.4 14.6667 7.19117 14.6667 5.7C14.6667 4.20883 15.8606 3 17.3333 3C18.8061 3 20 4.20883 20 5.7ZM9.33333 12C9.33333 13.4912 8.13943 14.7 6.66667 14.7C5.19391 14.7 4 13.4912 4 12C4 10.5088 5.19391 9.3 6.66667 9.3C8.13943 9.3 9.33333 10.5088 9.33333 12ZM20 18.3C20 19.7912 18.8061 21 17.3333 21C15.8606 21 14.6667 19.7912 14.6667 18.3C14.6667 16.8088 15.8606 15.6 17.3333 15.6C18.8061 15.6 20 16.8088 20 18.3Z" stroke="#6C7C0D" stroke-width="1.5" stroke-linecap="round" stroke-linejoin="round"/>
</svg>
