<svg width="24" height="24" viewBox="0 0 24 24" fill="none" xmlns="http://www.w3.org/2000/svg">
<path d="M11.1175 4.16938L11.1112 17.1586C11.1112 17.3818 11.2049 17.5958 11.3715 17.7536C11.5382 17.9114 11.7643 18 12 18C12.2357 18 12.4618 17.9114 12.6285 17.7536C12.7951 17.5958 12.8888 17.3818 12.8888 17.1586L12.895 4.18369L15.4831 6.63463C15.6497 6.79236 15.8758 6.88097 16.1114 6.88097C16.3471 6.88097 16.5731 6.79236 16.7398 6.63463C16.9064 6.47685 17 6.26288 17 6.03977C17 5.81667 16.9064 5.6027 16.7398 5.44492L13.886 2.73988C13.6383 2.50532 13.3443 2.31924 13.0207 2.19229C12.6971 2.06534 12.3503 2 12 2C11.6497 2 11.3029 2.06534 10.9793 2.19229C10.6557 2.31924 10.3617 2.50532 10.114 2.73988L7.26022 5.44239C7.0936 5.60017 7 5.81414 7 6.03725C7 6.26035 7.0936 6.47432 7.26022 6.6321C7.42689 6.78984 7.65291 6.87845 7.88857 6.87845C8.12424 6.87845 8.35026 6.78984 8.51693 6.6321L11.1175 4.16938Z" fill="url(#paint0_linear_304_6038)"/>
<path d="M20.3333 15V19C20.3333 19.2652 20.2455 19.5196 20.0893 19.7071C19.933 19.8946 19.721 20 19.5 20H4.5C4.27899 20 4.06702 19.8946 3.91074 19.7071C3.75446 19.5196 3.66667 19.2652 3.66667 19V15C3.66667 14.7348 3.57887 14.4804 3.42259 14.2929C3.26631 14.1054 3.05435 14 2.83333 14C2.61232 14 2.40036 14.1054 2.24408 14.2929C2.0878 14.4804 2 14.7348 2 15V19C2 19.7956 2.26339 20.5587 2.73223 21.1213C3.20107 21.6839 3.83696 22 4.5 22H19.5C20.163 22 20.7989 21.6839 21.2678 21.1213C21.7366 20.5587 22 19.7956 22 19V15C22 14.7348 21.9122 14.4804 21.7559 14.2929C21.5996 14.1054 21.3877 14 21.1667 14C20.9457 14 20.7337 14.1054 20.5774 14.2929C20.4211 14.4804 20.3333 14.7348 20.3333 15Z" fill="url(#paint1_linear_304_6038)"/>
<defs>
<linearGradient id="paint0_linear_304_6038" x1="16.4898" y1="2" x2="7.22268" y2="2.1253" gradientUnits="userSpaceOnUse">
<stop stop-color="#89C77A"/>
<stop offset="1" stop-color="#95B84B"/>
</linearGradient>
<linearGradient id="paint1_linear_304_6038" x1="20.9796" y1="14" x2="2.49603" y2="14.9997" gradientUnits="userSpaceOnUse">
<stop stop-color="#89C77A"/>
<stop offset="1" stop-color="#95B84B"/>
</linearGradient>
</defs>
</svg>
